<svg viewBox="0 0 64 64" xml:space="preserve" xmlns="http://www.w3.org/2000/svg" xmlns:xlink="http://www.w3.org/1999/xlink"><defs><path id="a" d="M3.625 3.625h56.75v56.75H3.625z"></path></defs><clipPath id="b"><use overflow="visible" xlink:href="#a"></use></clipPath><g clip-path="url(#b)"><defs><path id="c" d="M3.625 3.625h56.75v56.75H3.625z"></path></defs><clipPath id="d"><use overflow="visible" xlink:href="#c"></use></clipPath><path clip-path="url(#d)" d="M58.146 32c0 14.44-11.706 26.146-26.146 26.146S5.854 46.44 5.854 32C5.854 17.56 17.56 5.853 32 5.853S58.146 17.56 58.146 32" fill="#000000" class="fill-e65a4d"></path><path clip-path="url(#d)" d="M52.084 12.67A27.783 27.783 0 0 1 59.875 32c0 15.395-12.48 27.875-27.875 27.875S4.125 47.395 4.125 32 16.605 4.125 32 4.125c3.404 0 6.668.61 9.685 1.728M45.501 7.607a28.004 28.004 0 0 1 3.313 2.158" fill="none" stroke="#000000" stroke-linecap="round" stroke-linejoin="round" stroke-miterlimit="10" class="stroke-e65a4d"></path><g clip-path="url(#d)" opacity=".06"><defs><path id="e" d="M9.25 9.25h45.5v45.5H9.25z"></path></defs><clipPath id="f"><use overflow="visible" xlink:href="#e"></use></clipPath><path clip-path="url(#f)" d="M54.75 32c0 12.564-10.186 22.75-22.75 22.75S9.25 44.564 9.25 32 19.436 9.25 32 9.25 54.75 19.436 54.75 32" fill="#000000" class="fill-000000 fill-050505"></path></g><g clip-path="url(#d)" opacity=".04"><defs><path id="g" d="M14.541 14.542h34.917v34.917H14.541z"></path></defs><clipPath id="h"><use overflow="visible" xlink:href="#g"></use></clipPath><path clip-path="url(#h)" d="M49.458 32c0 9.642-7.816 17.458-17.458 17.458-9.643 0-17.459-7.816-17.459-17.458S22.357 14.542 32 14.542c9.642 0 17.458 7.816 17.458 17.458" fill="#000000" class="fill-000000 fill-050505"></path></g></g><path clip-rule="evenodd" d="M32.52 22.813c3.695 0 7.39-.002 11.085.001 1.146 0 2.035.723 2.244 1.817.028.154.03.315.03.472.004 4.924.004 9.846.003 14.771 0 .178 0 .357-.025.533-.156 1.086-.728 1.588-1.972 1.713-.414.041-.831.063-1.246.063-7.053.005-14.105.004-21.159.003-1.445 0-2.361-.91-2.362-2.351l.001-14.65c0-1.457.916-2.372 2.375-2.373l11.026.001zm-.056 7.607 9.573-7.052H22.953c3.209 2.379 6.352 4.711 9.511 7.052zm-.466 4.877a48332.75 48332.75 0 0 1-9.098 6.326h19.133l-2.737-1.903c-2.049-1.425-4.097-2.85-6.15-4.271-.089-.062-.256-.117-.329-.076-.299.17-.563.162-.819-.076zm1.408-.327 8.883 6.176V28.854l-8.883 6.116zm-1.88 0-8.872-6.109v12.28l8.872-6.171z" fill-rule="evenodd" opacity=".2" fill="#000000" class="fill-000000 fill-050505"></path><path clip-rule="evenodd" d="M32.02 22.313c3.695 0 7.39-.002 11.085.001 1.146 0 2.035.723 2.244 1.817.028.154.03.315.03.472.004 4.924.004 9.846.003 14.771 0 .178 0 .357-.025.533-.156 1.086-.728 1.588-1.972 1.713-.414.041-.831.063-1.246.063-7.053.005-14.105.004-21.159.003-1.445 0-2.361-.91-2.362-2.351l.001-14.65c0-1.457.916-2.372 2.375-2.373l11.026.001zm-.056 7.607 9.573-7.052H22.453c3.209 2.379 6.352 4.711 9.511 7.052zm-.466 4.877a48332.75 48332.75 0 0 1-9.098 6.326h19.133l-2.737-1.903c-2.049-1.425-4.097-2.85-6.15-4.271-.089-.062-.256-.117-.329-.076-.299.17-.563.162-.819-.076zm1.408-.327 8.883 6.176V28.354l-8.883 6.116zm-1.88 0-8.872-6.109v12.28l8.872-6.171z" fill="#ffffff" fill-rule="evenodd" class="fill-ffffff"></path></svg>